<?xml version="1.0"?>
<svg id="Layer_1" xmlns="http://www.w3.org/2000/svg" version="1.1" viewBox="0 0 532 565.8">
  
  <defs>
    
  </defs>
  <path class="st0" d="M144,365.4c2.6-.9,4.8-3.7,6.6-6,44.6-58.4,81.5-123.8,131.5-178,3.1-3.3,6.7-6.9,9.9-10,3.2-3,5.8-5.3,9.7-6.4,4.3-1.2,10.6-.7,14.5,2.3,4.2,3.4.5,8.2-2.2,11.3-9.4,11.1-17.5,23.9-24.9,36.4-9.2,16.9-78.3,144.3-88,162.3-.6,1-.7,1.7.9,2.2,176.1,14.9,316.6-246.2,92.6-246.1-40.3.3-96.8,6.9-124.5,37.6-11.3,12.8-10.9,32.2,1.6,50.6,1.9,3.1,4.4,6.9,4.3,10.4-.3,7.5-13.2,15.7-19.5,17.6-17.8,6.2-31.3-9.8-36.3-26.1-17.2-49.4,22.7-82.1,71.9-97.9,84.1-27.5,245.3-25.6,268.3,80.9,31,176.1-190.9,312.1-338.7,217.8-12.7-8.4-23.8-18.5-32.7-30.5-9.1-12.2-15.8-26.9-19.6-42-1.2-5.3-2.2-11.2-.2-16.3,1.7-4.4,6.2-7.8,10.9-7.8,8.3,0,12.7,8.9,18.2,13.9,6.6,7,35.9,27.1,45.2,23.9h.1c0,0,0,0,0,0Z"></path>
</svg>