<?xml version="1.0"?>
<svg id="Layer_1" data-name="Layer 1" xmlns="http://www.w3.org/2000/svg" viewBox="0 0 1920 1080">
  <path d="M1125.19,594.22c12.09,4.1,40.79-18.07,47.83-23.99,5.94-6.99.92-17.79,1.3-26.2-1.02-17.65.02-35.42,1.33-53.04.3-5.06,1.66-12.59-4.1-14.35-8.44-3.26-27.83-1.86-37.61-7.89-8.37-5.7-4.68-16.36,5.32-17.99,9.54-2.49,23.88-1.45,32.69-1.36,2.66,0,5.55-.1,7.69-1.72,2.56-1.8,3.99-5.83,4.92-9.07,10.43-38.32,19.93-85.76,53.55-109.16,34.58-21.6,54.85,30.13,47.01,63.35-1.6,7.18-4.21,14-6.95,20.81-4.29,11.01-11.62,22.29-17.14,32.61-3.26,5.96-2.94,8.59,3.42,8.68,11.91,1.46,33.2-.42,45.92,4.08,6.55,4.07,5.51,15.54-.47,20.16-4.47,3.56-10.83,3.29-16.39,3.33-15.81.16-33.37.02-49.24.32-10.83.2-15.86,11.53-22.17,18.61-10.89,14.07-6.87,40.24-8.32,59.24-2.06,47.15,28.03,49.28,66.12,24.98,10.69-5.89,18.91-15.66,18.82-28.27,1.24-20.21,7.27-40.47,20.26-56.28,33.31-40.92,91.87-36.08,130.66-5.57,24.56,21.51,17.67,9.97,36.9-7.3,32.41-35.6,102.03-11.48,83.35,39.99-4.01,11.66-22.01,22.75-30.66,9.99-6.66-10.37,1.86-30.79-8.26-32.2-36.53,2.27-39.03,82.55-17.58,96.35,25.38,14.65,62.57-16.06,78.4-37.76,2.48-4.17,3.28-9.46,3.6-14.46,3.62-52.03,8.03-104.03,22.69-154.3,8.4-26.27,17.96-54.26,37.39-74.58,6.65-6.75,14.37-12.24,23.49-15.6,107.82-24.97,1.95,189.95-25.46,225.66-7.79,12.26,3.01,7.07,6.77.23,16.86-20.79,31.93-48.31,58.05-57.87,15.36-6.34,35.2-1.94,39.28,16.08,14.28,42.6-50.69,68.53-43.3,106.69,3.5,10.63,16.26,6.41,23.05,1.64,13.02-8.35,21.3-21.78,31.9-32.65,1.78-1.41,3.23-2.48,5.18-1.52,1.78,1.12,2.59,3.48,3.29,5.46,2.38,7.77,5.32,18.19,4.84,26.2-261.24,231.23-1146.82,205.27-1525.37,137.6-7.11-46.07,893.66,50.83,1393.57-97.3,15.67-10.93,15.17-32.36,21.64-48.7,4.92-14.1,12.3-28.46,21.63-40.16,4.9-6.66,15.41-12.9,13.54-22.03-2.05-5.54-8.08-3.58-11.43-.43-26.54,14.04-59.67,153.27-97.42,105.77-4.86-5.44-2.92-26.11-9.42-23.73-4.37,1.62-9.25,7.99-13.65,11.01-58.69,51.93-133.33,9.67-119.98-67.11,1.21-8.58,3.79-15.79-3.9-20.67-6.64-4.91-17.82-13.08-24.52-17.98-10.73-8.56-3.59,7.47-2.37,12.3,11.56,37.69-.61,83.16-33.42,106.13-25.27,17.81-60.31,14.74-78.09-12.86-3.45-5.69-9.17-8.47-15.1-4.77-40.43,23.32-86.62,50.74-110.14-2.03-1.34-2.49-3.25-6.48-6.07-5.3-42.51,25.51-129.57,64.14-163.69,16.31-3.36-4.88-8.16-3.98-12.46-1.03-29.23,19.66-60.57,34.91-83.47.34-1.75-2.62-4.54-5.24-7.1-5.02-30.06,17.54-55.81,40.28-88.35,16.12-4.32-2.75-8.63-3.02-13.08-.54-17.63,12.06-43.75,19.86-57.39-2.08-3.29-5.23-7.44-13.12-14.24-7.79-26.42,21.97-63.68,32.04-85.4,2.48-4.32-5.13-9.91-4.09-14.71-.56-44.61,30.22-117.8,28.44-127.8-35.06-11.52-54.92,28.57-130.7,87.33-111.99,14.63,5.3,26.85,18.25,28.81,34.02,2.97,22.41-9.73,42.07-26.73,56.16-10.02,8.32-21.7,14.87-33.03,19.32-3.03,1.27-6.77,2.63-7.29,6.17-.35,3.38,2.92,6.42,6.15,8.81,20.13,13.06,47.94-4.3,67.95-16.78,6.02-3.49,9.92-8.97,12.17-15.53,19.74-55.31,68.5-121.67,129.84-84.87,5.05,3.16,8.73,8.98,9.77,14.11,8.18,13.24-32.81,118.71,7.18,102.03,7.26-3.39,13-8.65,13.58-16.65,2.42-47.1,36.33-90.61,82.89-99.9,4.46-1.47,7.09-4.1,7.81-8.36,1.53-18.83,2.68-35.07,6.48-53.4,34.1-165.15,144.97-149.21,100.09-4.31-10.24,50.71-52.03,105.09-55.34,156.28.44,55.72,56.44.76,75.58-15.5,28.48-22.87,55.03-102.41,98.27-82.37,20.77,15.82-10.99,34.2-13.7,49.42-1.24,6.27.97,12.39,1.89,18.54,3.2,14.81.47,38.84,10.97,50.48l.11.06ZM1678.85,343.42c-27.54,29.92-38.93,121.66-44.63,165.37-.07,1.32-.67,4.84,1.06,4.39,29.81-32.54,69.34-188.74,43.65-169.83l-.08.07ZM945.99,504.47c2.03-.67,3.46-4.73,4.52-6.86,16.68-38.98,39.87-107.19,34.03-149.33-2.33-7.63-9.01-7.5-13.71-1.87-22.44,36.13-25.8,109.97-26.08,153.37,0,1.42.09,4.55,1.18,4.69h.06ZM1218.07,449.58c1.99,2.2,5.52,1.51,8.18-.13,2.08-1.3,3.66-3.59,4.94-5.77,7.11-12.14,14.57-24.8,19.76-37.38,4.21-10.86,10.03-23.56,7.34-35.4-1.52-5.78-7.89-8.58-12.97-5.15-13.94,10.53-24.41,59.22-27.76,77.25-.39,2.08-.79,4.97.42,6.47l.08.1ZM1370.96,505.62c-28.33,4.99-47.88,87.66-15.48,100.67,12.49,4.98,21.46-3.78,26.95-14.15,11.39-20.86,18.01-52.41,8.05-74.38-3.3-7.7-10.64-13.93-19.34-12.17l-.18.03ZM557.82,559.07c1.19,1.11,3.56.89,5.29.44,12.76-3.08,28.79-15.01,34.22-26.37,2.93-6.17,2.43-13.64-.73-19.82-2.56-5.34-8.75-7.03-14.2-5.73-18.06,3.61-26.36,27.65-26.18,46.12.02,1.83.27,4.14,1.52,5.28l.09.08ZM700.3,606.57c10.44,8.79,21.84-4.13,26.93-12.97,13.29-23.16,14.21-51.78,20.55-77.5.59-2.5,1.09-6.4-1.11-7.69-31.38-4.3-68.3,75.06-46.5,98.05l.13.12ZM900.78,510.7c-.85-.54-2.06-.43-3.47.12-25.05,11.68-51.85,59.1-41.56,86.41,5,10.51,19.3,10.76,27.79,4.49,6.72-4.95,11.06-13.05,15.36-20.28,5.73-9.79,6.59-15.75,5.16-26.92-1.74-12.53-1.97-25.11-1.57-37.71,0-2.03-.11-5.02-1.61-6.07l-.09-.06ZM1076.24,553.19c-2.45-.33-4.57,2.66-7.64,5.55-2.67,2.68-5.27,5.29-7.97,8-7.81,7.83-16.31,16.35-23.99,24.06-4.09,3.77-4.67,5.03-1.37,8.94,8.62,9.52,20.99,18.47,33.42,13.54,11.94-4.36,15.76-16.94,15.49-28.6.11-5.1-2.78-30.31-7.83-31.45l-.1-.02Z"></path>
  <path d="M211.99,562.81c2.59-.93,4.84-3.68,6.6-6.04,44.64-58.39,81.47-123.78,131.52-178.04,3.12-3.32,6.66-6.95,9.86-9.98,3.2-2.99,5.8-5.3,9.73-6.39,4.33-1.16,10.56-.67,14.48,2.34,4.22,3.39.53,8.2-2.17,11.27-9.4,11.15-17.49,23.89-24.86,36.36-9.17,16.91-78.33,144.35-88.04,162.25-.57,1-.71,1.74.91,2.2,176.09,14.93,316.58-246.19,92.64-246.05-40.32.27-96.77,6.87-124.5,37.64-11.28,12.8-10.9,32.18,1.62,50.63,1.92,3.13,4.44,6.86,4.33,10.37-.28,7.5-13.21,15.68-19.5,17.64-17.79,6.19-31.34-9.83-36.27-26.08-17.17-49.44,22.66-82.13,71.94-97.9,84.07-27.55,245.31-25.57,268.33,80.93,31.05,176.14-190.87,312.14-338.68,217.76-12.7-8.35-23.81-18.53-32.67-30.47-9.14-12.16-15.85-26.85-19.56-42.02-1.24-5.3-2.23-11.16-.24-16.32,1.66-4.37,6.17-7.77,10.91-7.84,8.28.08,12.69,8.91,18.19,13.86,6.59,7.03,35.9,27.07,45.24,23.93l.15-.06Z"></path>
</svg>