<?xml version="1.0"?>
<svg id="Layer_1" data-name="Layer 1" xmlns="http://www.w3.org/2000/svg" viewBox="0 0 395.22 344.51">
  <defs>
    
  </defs>
  <path class="cls-1" d="M75.66,254.71c2.59-.93,4.84-3.68,6.6-6.04,44.64-58.39,81.47-123.78,131.52-178.04,3.12-3.32,6.66-6.95,9.86-9.98,3.2-2.99,5.8-5.3,9.73-6.39,4.33-1.16,10.56-.67,14.48,2.34,4.22,3.39.53,8.2-2.17,11.27-9.4,11.15-17.49,23.89-24.86,36.36-9.17,16.91-78.33,144.35-88.04,162.25-.57,1-.71,1.74.91,2.2,176.09,14.93,316.58-246.19,92.64-246.05-40.32.27-96.77,6.87-124.5,37.64-11.28,12.8-10.9,32.18,1.62,50.63,1.92,3.13,4.44,6.86,4.33,10.37-.28,7.5-13.21,15.68-19.5,17.64-17.79,6.19-31.34-9.83-36.27-26.08C34.84,63.39,74.67,30.7,123.95,14.93c84.07-27.55,245.31-25.57,268.33,80.93,31.05,176.14-190.87,312.14-338.68,217.76-12.7-8.35-23.81-18.53-32.67-30.47-9.14-12.16-15.85-26.85-19.56-42.02-1.24-5.3-2.23-11.16-.24-16.32,1.66-4.37,6.17-7.77,10.91-7.84,8.28.08,12.69,8.91,18.19,13.86,6.59,7.03,35.9,27.07,45.24,23.93l.15-.06h.04Z"></path>
</svg>